<?xml version="1.0" encoding="utf-8"?>
<!-- Generator: Adobe Illustrator 21.0.0, SVG Export Plug-In . SVG Version: 6.00 Build 0)  -->
<svg version="1.1" id="Layer_1" xmlns="http://www.w3.org/2000/svg" xmlns:xlink="http://www.w3.org/1999/xlink" x="0px" y="0px"
	 viewBox="0 0 194.4 150.5" style="enable-background:new 0 0 194.4 150.5;" xml:space="preserve">
<style type="text/css">
	.st0{fill:#FFFFFF;stroke:#000000;stroke-width:5;stroke-miterlimit:10;}
	.st1{fill:url(#SVGID_1_);stroke:#000000;stroke-width:5;stroke-miterlimit:10;}
	.st2{fill:url(#SVGID_2_);stroke:#000000;stroke-width:5;stroke-miterlimit:10;}
</style>
<path class="st0" d="M201,237.5H-8c-11.3,0-20.5-9.2-20.5-20.5V-42c0-11.3,9.2-20.5,20.5-20.5h209c11.3,0,20.5,9.2,20.5,20.5v259
	C221.5,228.3,212.3,237.5,201,237.5z"/>
<linearGradient id="SVGID_1_" gradientUnits="userSpaceOnUse" x1="2.5" y1="75.15" x2="191.9204" y2="75.15">
	<stop  offset="0" style="stop-color:#283F7A"/>
	<stop  offset="0.118" style="stop-color:#88526F"/>
	<stop  offset="0.2472" style="stop-color:#ED6F5F"/>
	<stop  offset="0.3528" style="stop-color:#EE8051"/>
	<stop  offset="0.4326" style="stop-color:#EE874C"/>
	<stop  offset="0.5449" style="stop-color:#F4BB66"/>
	<stop  offset="0.5454" style="stop-color:#E8BC72"/>
	<stop  offset="0.547" style="stop-color:#BDC09D"/>
	<stop  offset="0.5485" style="stop-color:#9EC3BC"/>
	<stop  offset="0.5497" style="stop-color:#8BC5CF"/>
	<stop  offset="0.5506" style="stop-color:#84C6D6"/>
	<stop  offset="0.6742" style="stop-color:#009EB3"/>
	<stop  offset="0.9101" style="stop-color:#428B9D"/>
	<stop  offset="1" style="stop-color:#00838F"/>
</linearGradient>
<path class="st1" d="M80.5,4.7c-1.9,1.7-2.6,3.4-2.8,6.8L77.4,16l-8.2,0.3l-8.1,0.3l-1.6-3.1c-2-3.9-4.9-5-12.8-5
	c-7.3,0-10.9,1.6-11.7,5c-0.5,2.3-1.2,2.6-7,3.1C17,17.5,9,23,4.6,32.4c-2,4.5-2.1,5.8-2.1,49.6c0,44.5,0,45,2.2,49.1
	c5.9,11.1,13.4,15.4,27.9,16.2c5.1,0.3,9.4,0.2,9.4-0.1c0-0.2-1.4-3.4-3-6.9c-11.2-23.9-6.2-51.6,12.9-70.8c13-13.1,26.9-19,44.9-19
	c18.1,0,31.9,5.7,44.8,18.5c6.4,6.3,8.9,9.8,12.2,16.5c4.3,8.8,7.2,20.4,7.2,28.5c0,7.4-2.9,19.5-6.4,26.9l-3.3,6.9l9.8-0.5
	c8.4-0.4,10.8-0.9,15.6-3.4c6.9-3.5,11.7-9.4,13.8-16.9c1.4-4.6,1.6-11.7,1.3-47.7c-0.3-45.8-0.3-45.1-6-52.9
	c-2.5-3.3-8.5-7.5-12.1-8.4c-2.1-0.6-2.5-1.4-3-5.8c-0.3-3.9-1.1-5.6-3.1-7.4l-2.7-2.3H124H83.1L80.5,4.7z M175,35.5
	c2.8,2.8,2.5,6.4-0.6,8.9c-2.4,1.9-4,2.1-17.5,2.1c-13.6,0-15.1-0.2-16.9-2c-2.4-2.4-2.6-6.7-0.3-9.2c1.4-1.6,3.4-1.8,17.5-1.8
	C171.7,33.5,173.2,33.7,175,35.5z"/>
<linearGradient id="SVGID_2_" gradientUnits="userSpaceOnUse" x1="44.0856" y1="113.7605" x2="150" y2="113.7605">
	<stop  offset="0" style="stop-color:#283F7A"/>
	<stop  offset="0.118" style="stop-color:#88526F"/>
	<stop  offset="0.2472" style="stop-color:#ED6F5F"/>
	<stop  offset="0.3528" style="stop-color:#EE8051"/>
	<stop  offset="0.4326" style="stop-color:#EE874C"/>
	<stop  offset="0.5449" style="stop-color:#F4BB66"/>
	<stop  offset="0.5454" style="stop-color:#E8BC72"/>
	<stop  offset="0.547" style="stop-color:#BDC09D"/>
	<stop  offset="0.5485" style="stop-color:#9EC3BC"/>
	<stop  offset="0.5497" style="stop-color:#8BC5CF"/>
	<stop  offset="0.5506" style="stop-color:#84C6D6"/>
	<stop  offset="0.6742" style="stop-color:#009EB3"/>
	<stop  offset="0.9101" style="stop-color:#428B9D"/>
	<stop  offset="1" style="stop-color:#00838F"/>
</linearGradient>
<path class="st2" d="M86.5,61.7c-7.5,1.4-20.3,8-25.8,13.3c-10.6,10.3-15.6,21.3-16.4,36.6c-0.5,8.2-0.2,10.9,1.7,17
	c5.2,17.4,18.2,30.7,35,36c9,2.9,23.1,2.9,32.1,0c21.7-6.9,36.9-27.7,36.9-50.6c0-14.2-4.8-26-14.8-36.7
	C122.7,64.1,104.6,58.3,86.5,61.7z M115.6,74.5c21.8,10.7,30.9,35.9,21,57.7c-11.5,24.9-43.3,33.2-65.3,17
	c-28.8-21.3-21.9-64.8,12.1-76.9c3.9-1.4,7.4-1.8,15.2-1.6C107.7,71,109.3,71.4,115.6,74.5z"/>
<g>
	<path d="M96.7,114.6h-6.2l-1.1,2.7c-0.3,0.7-0.4,1.1-0.4,1.5c0,0.3,0.1,0.5,0.3,0.7c0.2,0.2,0.7,0.3,1.5,0.4v0.5h-5v-0.5
		c0.7-0.1,1.1-0.3,1.3-0.5c0.4-0.4,0.8-1.2,1.3-2.4l5.6-13.9h0.4l5.5,14c0.4,1.1,0.8,1.9,1.2,2.2c0.4,0.3,0.9,0.5,1.5,0.6v0.5h-6.3
		v-0.5c0.6,0,1.1-0.1,1.3-0.3c0.2-0.2,0.3-0.4,0.3-0.7c0-0.4-0.2-0.9-0.5-1.7L96.7,114.6z M96.3,113.6l-2.7-6.8l-2.8,6.8H96.3z"/>
	<path d="M110.4,119.7v0.5h-6.8v-0.5h0.6c0.7,0,1.1-0.2,1.4-0.6c0.2-0.3,0.3-0.9,0.3-1.9v-10.9c0-0.9-0.1-1.4-0.2-1.7
		c-0.1-0.2-0.2-0.4-0.5-0.5c-0.3-0.2-0.7-0.3-1.1-0.3h-0.6v-0.5h6.8v0.5h-0.6c-0.6,0-1.1,0.2-1.4,0.6c-0.2,0.3-0.3,0.9-0.3,1.9v10.9
		c0,0.9,0.1,1.4,0.2,1.7c0.1,0.2,0.2,0.4,0.5,0.5c0.3,0.2,0.7,0.3,1.1,0.3H110.4z"/>
</g>
<g>
</g>
<g>
</g>
<g>
</g>
<g>
</g>
<g>
</g>
<g>
</g>
<g>
</g>
<g>
</g>
<g>
</g>
<g>
</g>
<g>
</g>
</svg>
